<svg width="36" height="36" viewBox="0 0 36 36" fill="none" xmlns="http://www.w3.org/2000/svg">
<rect width="36" height="36" rx="8.32514" fill="url(#paint0_linear_632_1175)"/>
<path opacity="0.8" d="M31.5476 31.114C31.6575 31.114 31.7628 31.1575 31.8406 31.2351C31.9184 31.3129 31.9627 31.419 31.9627 31.529C31.9626 31.639 31.9183 31.7442 31.8406 31.822V31.8318C31.2386 32.4332 30.422 32.7712 29.5711 32.7712C28.7203 32.7711 27.9044 32.4331 27.3025 31.8318C27.1629 31.69 27.0363 31.5354 26.9246 31.3708C26.9208 31.3645 26.9187 31.3566 26.9197 31.3493C26.9208 31.3421 26.9251 31.3358 26.9304 31.3308C26.9358 31.3258 26.9427 31.3225 26.95 31.322C26.9572 31.3215 26.9645 31.3237 26.9705 31.3278C27.5719 31.8394 28.3402 32.1124 29.1297 32.0954C29.9192 32.0784 30.6757 31.7722 31.2547 31.2351C31.3324 31.1575 31.4378 31.114 31.5476 31.114ZM29.5691 27.862C30.2695 27.862 30.5554 28.4693 30.5554 29.073V29.1814L30.697 29.5349C30.7354 29.6363 30.7739 29.7411 30.8015 29.8318C30.935 30.2616 30.8917 30.4399 30.8425 30.446C30.7706 30.4536 30.5674 30.1237 30.5662 30.1218C30.5616 30.2417 30.5322 30.3598 30.4793 30.4675C30.4264 30.5751 30.3506 30.6699 30.2586 30.7468C30.3446 30.7705 30.4269 30.8076 30.5017 30.8562C30.5584 30.8976 30.5506 30.9409 30.5398 30.9577C30.4936 31.0326 29.7709 31.0067 29.5603 30.9821C29.3485 31.0067 28.6267 31.0328 28.5799 30.9577C28.5706 30.9408 28.5632 30.8976 28.6199 30.8562C28.694 30.8073 28.7755 30.7702 28.8611 30.7468C28.7693 30.6697 28.6942 30.5741 28.6414 30.4665C28.5886 30.359 28.5584 30.2415 28.5535 30.1218C28.5484 30.13 28.3489 30.4533 28.2791 30.446C28.2453 30.446 28.2022 30.2617 28.3357 29.8318C28.3649 29.7411 28.4022 29.6363 28.4422 29.5349L28.5828 29.1814V29.073C28.5828 28.4694 28.8688 27.8621 29.5691 27.862ZM30.4021 26.4538H30.409C31.2304 26.6745 31.9311 27.2123 32.3562 27.9489C32.7813 28.6856 32.8965 29.561 32.6765 30.3825C32.6263 30.5728 32.558 30.7586 32.4734 30.9362C32.4697 30.9423 32.4644 30.9474 32.4578 30.9499C32.451 30.9525 32.4432 30.952 32.4363 30.9499C32.4297 30.9478 32.4237 30.9439 32.4197 30.9382C32.4156 30.9323 32.4135 30.9248 32.4138 30.9177C32.5555 30.1407 32.407 29.3387 31.9968 28.6638C31.5866 27.9889 30.9432 27.4876 30.1883 27.2556C30.0821 27.2273 29.9915 27.1582 29.9363 27.0632C29.8811 26.968 29.866 26.8541 29.8943 26.7478C29.9227 26.6417 29.9917 26.5509 30.0867 26.4958C30.1819 26.4407 30.2958 26.4255 30.4021 26.4538ZM29.3445 26.364C29.3498 26.3682 29.3536 26.374 29.3552 26.3806C29.3569 26.3874 29.3563 26.3948 29.3533 26.4011C29.3503 26.4074 29.3449 26.4127 29.3386 26.4157C28.594 26.6792 27.9722 27.2066 27.5906 27.8982C27.209 28.5897 27.0942 29.3973 27.2683 30.1677C27.2899 30.2719 27.2705 30.3809 27.2146 30.4714C27.1587 30.5617 27.0702 30.6277 26.9675 30.655C26.8648 30.6823 26.7553 30.6687 26.6619 30.6179C26.5685 30.5671 26.4976 30.4827 26.4646 30.3816C26.3563 29.9742 26.3297 29.5494 26.3855 29.1316C26.4414 28.7139 26.5793 28.3115 26.7908 27.947C27.0023 27.5825 27.283 27.2624 27.6179 27.0066C27.9529 26.7507 28.3355 26.5639 28.7429 26.4558C28.9334 26.4044 29.1282 26.3711 29.325 26.3571C29.332 26.357 29.339 26.3597 29.3445 26.364Z" fill="url(#paint1_linear_632_1175)" fill-opacity="0.9"/>
<circle cx="14.8071" cy="14.1643" r="7.95" fill="url(#paint2_linear_632_1175)"/>
<path d="M17.0104 10.4045C19.4783 10.4046 21.6175 11.8046 22.6823 13.8528C23.2485 13.6885 23.8472 13.5999 24.4664 13.5999C27.9958 13.5999 30.8568 16.4611 30.8571 19.9905C30.8571 23.4097 28.1721 26.202 24.7955 26.3733L24.4664 26.3821H9.55432V26.3508C7.15795 26.0859 5.29382 24.0561 5.29358 21.5891C5.29358 18.942 7.43946 16.7953 10.0865 16.7952C10.2667 16.7952 10.4447 16.8061 10.6198 16.8254C10.6197 16.8155 10.6198 16.8052 10.6198 16.7952C10.6199 13.2657 13.4809 10.4045 17.0104 10.4045Z" fill="url(#paint3_linear_632_1175)" fill-opacity="0.6"/>
<defs>
<linearGradient id="paint0_linear_632_1175" x1="5.5" y1="-1" x2="18" y2="36" gradientUnits="userSpaceOnUse">
<stop stop-color="#8396EC" style="stop-color:#8396EC;stop-color:color(display-p3 0.5137 0.5882 0.9255);stop-opacity:1;"/>
<stop offset="0.580509" stop-color="#4CA4FF" style="stop-color:#4CA4FF;stop-color:color(display-p3 0.2988 0.6433 1.0000);stop-opacity:1;"/>
<stop offset="1" stop-color="#81D4FA" style="stop-color:#81D4FA;stop-color:color(display-p3 0.5059 0.8314 0.9804);stop-opacity:1;"/>
</linearGradient>
<linearGradient id="paint1_linear_632_1175" x1="27.3214" y1="28.9286" x2="32.2424" y2="33.6311" gradientUnits="userSpaceOnUse">
<stop stop-color="white" style="stop-color:white;stop-opacity:1;"/>
<stop offset="1" stop-color="#BDE0F5" style="stop-color:#BDE0F5;stop-color:color(display-p3 0.7412 0.8784 0.9608);stop-opacity:1;"/>
</linearGradient>
<linearGradient id="paint2_linear_632_1175" x1="6.85712" y1="6.21429" x2="14.2393" y2="13.5964" gradientUnits="userSpaceOnUse">
<stop stop-color="#FAE26F" style="stop-color:#FAE26F;stop-color:color(display-p3 0.9804 0.8863 0.4353);stop-opacity:1;"/>
<stop offset="1" stop-color="#F7BC3D" style="stop-color:#F7BC3D;stop-color:color(display-p3 0.9686 0.7373 0.2392);stop-opacity:1;"/>
</linearGradient>
<linearGradient id="paint3_linear_632_1175" x1="11.7288" y1="20.2041" x2="19.0898" y2="29.4051" gradientUnits="userSpaceOnUse">
<stop stop-color="white" style="stop-color:white;stop-opacity:1;"/>
<stop offset="1" stop-color="#BDE0F5" style="stop-color:#BDE0F5;stop-color:color(display-p3 0.7412 0.8784 0.9608);stop-opacity:1;"/>
</linearGradient>
</defs>
</svg>
